# xmcd
#
# Track frame offsets:
#	150
#	12251
#	28677
#	44653
#	63020
#	78293
#	90180
#	105794
#	120888
#	133480
#	147485
#	163316
#	181150
#	194650
#
# Disc length: 2879 seconds
# Revision: 0
# Processed by: cddbd v1.5.2PL0 Copyright (c) Steve Scherf et al.
# Submitted via: dBpowerAMP V12.0
#
DISCID=b40b3d0e
DTITLE=Carolyn Martin - Tennessee Local
DYEAR=2012
DGENRE=Country
TTITLE0=Swing On
TTITLE1=Change Your Made Up Mind
TTITLE2=Fascinatin' Rhythm
TTITLE3=Texas Bluebonnets
TTITLE4=It Don't Mean A Thing (If It Ain't Got That Swing)
TTITLE5=I'm Satisfied With You
TTITLE6=Beat Me Daddy Eight To The Bar
TTITLE7=Tennessee Local
TTITLE8=Rhode Island Is Famous For You
TTITLE9=Cowgirl Yodel #3
TTITLE10=I'm Puttin' All My Eggs In One Basket
TTITLE11=Talk To Me
TTITLE12=You're From Texas
TTITLE13=You Don't Know Me
EXTD=
EXTT0=
EXTT1=
EXTT2=
EXTT3=
EXTT4=
EXTT5=
EXTT6=
EXTT7=
EXTT8=
EXTT9=
EXTT10=
EXTT11=
EXTT12=
EXTT13=
PLAYORDER=
